# Blender 4.2.3 LTS
# www.blender.org
mtllib machine-colored.mtl
o machine_blender
v 160.769409 0.000000 -167.522614
v 20.831913 0.000000 -18.647614
v 20.831913 0.000000 -167.522614
v 160.769409 0.000000 -18.647614
v 160.769409 250.187500 -18.647614
v 20.831913 250.187500 -167.522614
v 20.831913 250.187500 -18.647614
v 160.769409 250.187500 -167.522614
v 70.956909 113.225769 -167.522614
v 145.064453 82.204765 -167.522614
v 70.956909 186.014725 -167.522614
v 145.064453 217.035690 -167.522614
v 160.769409 217.035690 -167.522614
v 160.769409 230.642258 -167.522614
v 160.769409 82.204765 -167.522614
v 160.769409 82.204765 -18.647614
v 160.769409 239.954758 -18.647614
v 160.769409 217.035690 -18.647614
v 145.064453 217.035690 -18.647614
v 145.064453 82.204765 -18.647614
v 70.956909 113.225769 -18.647614
v 70.956909 186.014725 -18.647614
vn -0.0000 -1.0000 -0.0000
vn -0.0000 1.0000 -0.0000
vn -1.0000 -0.0000 -0.0000
vn -0.0000 -0.0000 -1.0000
vn 1.0000 -0.0000 -0.0000
vn -0.0000 -0.0000 -0.0000
vn -0.0000 -0.0000 1.0000
vn 0.3861 0.9224 -0.0000
vn 0.3861 -0.9224 -0.0000
s 1
usemtl Metalic
f 1//1 2//1 3//1
f 2//1 1//1 4//1
f 5//2 6//2 7//2
f 6//2 5//2 8//2
f 6//3 2//3 7//3
f 2//3 6//3 3//3
f 3//4 9//4 1//4
f 9//4 3//4 6//4
f 1//4 9//4 10//4
f 9//4 6//4 11//4
f 11//4 6//4 12//4
f 12//4 6//4 13//4
f 13//4 6//4 14//4
f 14//4 6//4 8//4
f 15//4 1//4 10//4
f 1//5 16//5 4//5
f 16//5 1//5 15//5
f 13//5 17//5 18//5
f 17//5 13//5 5//5
f 5//5 13//5 8//5
f 8//5 13//5 14//6
f 17//7 19//7 18//7
f 16//7 2//7 4//7
f 2//7 16//7 20//7
f 2//7 20//7 21//7
f 2//7 21//7 7//7
f 7//7 21//7 22//7
f 7//7 22//7 19//7
f 7//7 19//7 17//7
f 7//7 17//7 5//7
f 16//2 10//2 20//2
f 10//2 16//2 15//2
f 20//8 9//8 21//8
f 9//8 20//8 10//8
f 13//1 19//1 12//1
f 19//1 13//1 18//1
f 9//5 22//5 21//5
f 22//5 9//5 11//5
f 12//9 22//9 11//9
f 22//9 12//9 19//9
